<svg width="38" height="38" viewBox="0 0 38 38" fill="none" xmlns="http://www.w3.org/2000/svg">
<path fill-rule="evenodd" clip-rule="evenodd" d="M19 2.75C10.025 2.75 2.75 10.025 2.75 19C2.75 27.975 10.025 35.25 19 35.25C27.975 35.25 35.25 27.975 35.25 19C35.25 10.025 27.975 2.75 19 2.75ZM0.25 19C0.25 8.645 8.645 0.25 19 0.25C29.355 0.25 37.75 8.645 37.75 19C37.75 29.355 29.355 37.75 19 37.75C8.645 37.75 0.25 29.355 0.25 19Z" fill="#262522"/>
<path fill-rule="evenodd" clip-rule="evenodd" d="M1.91663 3.16669C1.91663 2.83517 2.04832 2.51722 2.28274 2.2828C2.51716 2.04838 2.83511 1.91669 3.16663 1.91669H11.5C11.8315 1.91669 12.1494 2.04838 12.3838 2.2828C12.6183 2.51722 12.75 2.83517 12.75 3.16669C12.75 3.49821 12.6183 3.81615 12.3838 4.05057C12.1494 4.28499 11.8315 4.41669 11.5 4.41669H4.41663V11.5C4.41663 11.8315 4.28493 12.1495 4.05051 12.3839C3.81609 12.6183 3.49815 12.75 3.16663 12.75C2.83511 12.75 2.51716 12.6183 2.28274 12.3839C2.04832 12.1495 1.91663 11.8315 1.91663 11.5V3.16669ZM25.25 3.16669C25.25 2.83517 25.3817 2.51722 25.6161 2.2828C25.8505 2.04838 26.1684 1.91669 26.5 1.91669H34.8333C35.1648 1.91669 35.4828 2.04838 35.7172 2.2828C35.9516 2.51722 36.0833 2.83517 36.0833 3.16669V11.5C36.0833 11.8315 35.9516 12.1495 35.7172 12.3839C35.4828 12.6183 35.1648 12.75 34.8333 12.75C34.5018 12.75 34.1838 12.6183 33.9494 12.3839C33.715 12.1495 33.5833 11.8315 33.5833 11.5V4.41669H26.5C26.1684 4.41669 25.8505 4.28499 25.6161 4.05057C25.3817 3.81615 25.25 3.49821 25.25 3.16669ZM3.16663 25.25C3.49815 25.25 3.81609 25.3817 4.05051 25.6161C4.28493 25.8506 4.41663 26.1685 4.41663 26.5V33.5834H10.6666C10.9981 33.5834 11.3161 33.715 11.5505 33.9495C11.7849 34.1839 11.9166 34.5018 11.9166 34.8334C11.9166 35.1649 11.7849 35.4828 11.5505 35.7172C11.3161 35.9517 10.9981 36.0834 10.6666 36.0834H3.16663C2.83511 36.0834 2.51716 35.9517 2.28274 35.7172C2.04832 35.4828 1.91663 35.1649 1.91663 34.8334V26.5C1.91663 26.1685 2.04832 25.8506 2.28274 25.6161C2.51716 25.3817 2.83511 25.25 3.16663 25.25ZM34.8333 25.25C35.1648 25.25 35.4828 25.3817 35.7172 25.6161C35.9516 25.8506 36.0833 26.1685 36.0833 26.5V34.8334C36.0833 35.1649 35.9516 35.4828 35.7172 35.7172C35.4828 35.9517 35.1648 36.0834 34.8333 36.0834H26.5C26.1684 36.0834 25.8505 35.9517 25.6161 35.7172C25.3817 35.4828 25.25 35.1649 25.25 34.8334C25.25 34.5018 25.3817 34.1839 25.6161 33.9495C25.8505 33.715 26.1684 33.5834 26.5 33.5834H33.5833V26.5C33.5833 26.1685 33.715 25.8506 33.9494 25.6161C34.1838 25.3817 34.5018 25.25 34.8333 25.25ZM10.2216 11.96C10.3697 11.6634 10.6296 11.4378 10.944 11.3328C11.2584 11.2278 11.6017 11.252 11.8983 11.4L15.1316 13.0167C16.286 13.5945 17.2816 14.4459 18.0316 15.4967L22 21.05C22.515 21.7684 23.1966 22.35 23.9866 22.7467L27.22 24.3634C27.371 24.4342 27.5064 24.5345 27.6181 24.6585C27.7298 24.7824 27.8155 24.9275 27.8703 25.0851C27.925 25.2427 27.9476 25.4097 27.9368 25.5762C27.926 25.7427 27.882 25.9053 27.8073 26.0545C27.7327 26.2038 27.6289 26.3365 27.5021 26.445C27.3753 26.5534 27.2281 26.6354 27.0691 26.6861C26.9102 26.7368 26.7427 26.7552 26.5765 26.7401C26.4103 26.725 26.2489 26.6768 26.1016 26.5984L22.8683 24.9817C21.7135 24.4045 20.7173 23.5537 19.9666 22.5034L16 16.95C15.4861 16.2308 14.804 15.6483 14.0133 15.2534L10.78 13.6367C10.4837 13.4883 10.2584 13.2283 10.1537 12.9139C10.049 12.5995 10.0734 12.2564 10.2216 11.96ZM16.1133 8.42335C16.1868 8.27643 16.2885 8.14542 16.4126 8.03783C16.5367 7.93024 16.6809 7.84817 16.8367 7.79631C16.9926 7.74446 17.1572 7.72384 17.321 7.73563C17.4849 7.74742 17.6448 7.79139 17.7916 7.86502L20.7683 9.35335C22.1158 10.0265 23.2432 11.0701 24.0183 12.3617L25.555 14.925C26.085 15.8084 26.855 16.5217 27.7766 16.9834L30.755 18.4717C31.0394 18.6266 31.2526 18.8858 31.3496 19.1948C31.4467 19.5038 31.42 19.8384 31.2752 20.1281C31.1305 20.4178 30.879 20.64 30.5736 20.748C30.2683 20.8559 29.9329 20.8411 29.6383 20.7067L26.66 19.2184C25.3125 18.5452 24.185 17.5016 23.41 16.21L21.8733 13.6484C21.3435 12.765 20.5728 12.0509 19.6516 11.59L16.6733 10.1017C16.5264 10.0282 16.3954 9.92651 16.2878 9.80238C16.1802 9.67824 16.0981 9.53412 16.0463 9.37825C15.9944 9.22238 15.9738 9.05781 15.9856 8.89396C15.9974 8.73011 16.0413 8.5702 16.115 8.42335H16.1133ZM6.68663 17.8517C6.83501 17.5554 7.09497 17.3301 7.40938 17.2254C7.72378 17.1207 8.06689 17.1452 8.36329 17.2934L11.3416 18.7817C12.6879 19.4554 13.8141 20.499 14.5883 21.79L16.1266 24.3534C16.6566 25.2367 17.4266 25.95 18.3483 26.41L21.3266 27.9C21.4794 27.9697 21.6165 28.0694 21.7299 28.1932C21.8432 28.3171 21.9305 28.4625 21.9864 28.6207C22.0424 28.779 22.0659 28.9469 22.0555 29.1145C22.0451 29.2821 22.0011 29.4458 21.9261 29.596C21.851 29.7462 21.7465 29.8797 21.6188 29.9886C21.491 30.0975 21.3426 30.1795 21.1825 30.2299C21.0223 30.2802 20.8536 30.2977 20.6866 30.2814C20.5195 30.2651 20.3574 30.2153 20.21 30.135L17.2316 28.6467C15.8842 27.9735 14.7567 26.9299 13.9816 25.6384L12.445 23.075C11.9149 22.1922 11.1443 21.4788 10.2233 21.0184L7.24496 19.5284C6.94866 19.38 6.7234 19.12 6.61871 18.8056C6.51401 18.4912 6.53844 18.1481 6.68663 17.8517Z" fill="#262522"/>
</svg>
